# xmcd
#
# Track frame offsets:
#	150
#	26708
#	51847
#	65282
#	96063
#	117302
#	140674
#	168501
#	188687
#	209378
#	222542
#	251179
#
# Disc length: 3890 seconds
#
# Revision: 2
# Processed by: cddbd v1.4PL0 Copyright (c) Steve Scherf et al.
# Submitted via: MusicWizard 6.0.2
#
DISCID=b80f300c
DTITLE=Vanessa-Mae - *Subject To Change
DYEAR=2001
DGENRE=Pop
TTITLE0=Yantra
TTITLE1=White Bird
TTITLE2=Picante
TTITLE3=Destiny
TTITLE4=Night Flight
TTITLE5=Clear Like Ice
TTITLE6=Laughing Buddha
TTITLE7=Pasha
TTITLE8=Solace
TTITLE9=Love Is Only A Game
TTITLE10=Deep South
TTITLE11=Jamais
EXTD=
EXTT0=
EXTT1=
EXTT2=
EXTT3=
EXTT4=
EXTT5=
EXTT6=
EXTT7=
EXTT8=
EXTT9=
EXTT10=
EXTT11=
PLAYORDER=
